<svg width="181" height="32" viewBox="0 0 181 32" fill="none" xmlns="http://www.w3.org/2000/svg">
    <g clip-path="url(#clip0_181_51688)">
        <path
            d="M64.9859 5.17184H68.0142L75.8347 25.7507H73.1004L70.9254 20.1936H61.9576L59.7826 25.7507H57.1368L64.9859 5.17184ZM70.1605 17.873L66.4272 7.96598L62.7225 17.873H70.1605Z"
            fill="#0A0A0B" />
        <path d="M79.4795 5.17184V25.7507H77.0678V5.17184H79.4795Z" fill="#0A0A0B" />
        <path
            d="M82.448 22.2515C81.821 21.0964 81.5062 19.7618 81.5062 18.2528C81.5062 16.7439 81.821 15.4118 82.448 14.2541C83.075 13.0964 83.9517 12.1962 85.0782 11.5484C86.2047 10.9006 87.4951 10.578 88.9443 10.578C90.3934 10.578 91.6838 10.9006 92.8103 11.5484C93.9368 12.1962 94.8135 13.0964 95.4405 14.2541C96.0675 15.4118 96.3823 16.7439 96.3823 18.2528C96.3823 19.7618 96.0675 21.0938 95.4405 22.2515C94.8135 23.4092 93.9368 24.3094 92.8103 24.9572C91.6838 25.605 90.3934 25.9276 88.9443 25.9276C87.4951 25.9276 86.2047 25.605 85.0782 24.9572C83.9517 24.3094 83.075 23.4092 82.448 22.2515ZM93.2968 21.1042C93.7078 20.2613 93.9134 19.3117 93.9134 18.2528C93.9134 17.194 93.7078 16.2444 93.2968 15.4014C92.8857 14.5585 92.303 13.9029 91.5485 13.432C90.794 12.9611 89.9277 12.727 88.9469 12.727C87.966 12.727 87.0997 12.9611 86.3452 13.432C85.5908 13.9029 85.008 14.5585 84.5969 15.4014C84.1859 16.2444 83.9804 17.194 83.9804 18.2528C83.9804 19.3117 84.1859 20.2613 84.5969 21.1042C85.008 21.9471 85.5908 22.6027 86.3452 23.0736C87.0997 23.5445 87.966 23.7787 88.9469 23.7787C89.9277 23.7787 90.794 23.5445 91.5485 23.0736C92.303 22.6027 92.8857 21.9471 93.2968 21.1042Z"
            fill="#0A0A0B" />
        <path
            d="M111.815 17.4021V25.7507H109.403V17.5478C109.403 15.9998 109.055 14.8187 108.36 14.0044C107.666 13.19 106.659 12.7842 105.348 12.7842C103.937 12.7842 102.829 13.2733 102.025 14.2541C101.221 15.2349 100.821 16.567 100.821 18.2528V25.7507H98.409V10.7575H100.495L100.818 12.7868C101.955 11.3169 103.602 10.5806 105.759 10.5806C107.582 10.5806 109.047 11.1296 110.153 12.2274C111.261 13.3253 111.813 15.0502 111.813 17.4021H111.815Z"
            fill="#0A0A0B" />
        <path
            d="M128.395 25.017C128.395 29.5439 125.916 31.8073 120.957 31.8073C119.016 31.8073 117.435 31.365 116.209 30.4857C114.984 29.6037 114.274 28.3497 114.079 26.7237H116.548C116.743 27.6655 117.242 28.3887 118.046 28.8987C118.85 29.4086 119.878 29.6635 121.134 29.6635C124.368 29.6635 125.986 28.0844 125.986 24.9312V23.1673C124.909 25.0092 123.192 25.9302 120.84 25.9302C119.448 25.9302 118.21 25.6258 117.122 25.0196C116.035 24.4135 115.182 23.5289 114.565 22.3738C113.948 21.2187 113.639 19.845 113.639 18.258C113.639 16.671 113.948 15.417 114.565 14.2593C115.182 13.1016 116.04 12.2014 117.138 11.5536C118.236 10.9058 119.469 10.5832 120.843 10.5832C122.058 10.5832 123.096 10.8226 123.96 11.3039C124.821 11.7852 125.497 12.4642 125.989 13.3461L126.311 10.7575H128.398V25.017H128.395ZM125.396 21.151C125.807 20.3185 126.012 19.3715 126.012 18.3126C126.012 17.2538 125.807 16.2704 125.396 15.417C124.985 14.5637 124.402 13.9029 123.647 13.432C122.893 12.9611 122.034 12.727 121.074 12.727C119.584 12.727 118.384 13.2421 117.474 14.2697C116.563 15.3 116.108 16.6268 116.108 18.2528C116.108 19.8788 116.563 21.2083 117.474 22.2359C118.384 23.2661 119.586 23.7787 121.074 23.7787C122.034 23.7787 122.893 23.5471 123.647 23.0866C124.402 22.6261 124.985 21.9783 125.396 21.1458V21.151Z"
            fill="#0A0A0B" />
        <path
            d="M134.025 23.0164C134.78 23.5835 135.755 23.8697 136.949 23.8697C138.008 23.8697 138.864 23.659 139.522 23.2375C140.178 22.8161 140.508 22.2619 140.508 21.5777C140.508 20.9897 140.352 20.5396 140.038 20.2248C139.723 19.91 139.317 19.6967 138.817 19.577C138.318 19.4574 137.608 19.3429 136.687 19.2232C135.394 19.0671 134.335 18.8616 133.513 18.6066C132.691 18.3517 132.022 17.9458 131.515 17.3865C131.007 16.8271 130.75 16.0596 130.75 15.0788C130.75 14.1969 131 13.4138 131.499 12.727C131.999 12.0401 132.68 11.5068 133.541 11.1244C134.405 10.7419 135.373 10.552 136.453 10.552C138.216 10.552 139.653 10.9631 140.758 11.7878C141.867 12.6099 142.478 13.7858 142.595 15.3156H140.183C140.084 14.5325 139.702 13.8847 139.036 13.3748C138.37 12.8648 137.537 12.6099 136.536 12.6099C135.534 12.6099 134.694 12.8206 134.067 13.2421C133.44 13.6635 133.125 14.2177 133.125 14.9019C133.125 15.4118 133.273 15.8021 133.567 16.0779C133.861 16.351 134.239 16.5383 134.699 16.6372C135.16 16.7361 135.859 16.8427 136.801 16.9598C138.115 17.1159 139.197 17.3318 140.051 17.6076C140.904 17.8834 141.588 18.3231 142.108 18.9292C142.629 19.538 142.886 20.3601 142.886 21.3982C142.886 22.2983 142.621 23.0944 142.093 23.7787C141.565 24.4629 140.849 24.9936 139.947 25.3657C139.044 25.7377 138.045 25.925 136.947 25.925C134.988 25.925 133.414 25.4749 132.228 24.5722C131.041 23.672 130.438 22.4154 130.419 20.8102H132.831C132.87 21.713 133.268 22.4466 134.023 23.0164H134.025Z"
            fill="#0A0A0B" />
        <path
            d="M147.653 6.52468C147.653 6.97476 147.504 7.3468 147.21 7.64078C146.916 7.93476 146.544 8.08306 146.094 8.08306C145.644 8.08306 145.272 7.93476 144.978 7.64078C144.684 7.3468 144.538 6.97476 144.538 6.52468C144.538 6.0746 144.684 5.70257 144.978 5.40859C145.272 5.1146 145.644 4.96631 146.094 4.96631C146.544 4.96631 146.916 5.112 147.21 5.40859C147.504 5.70257 147.653 6.0746 147.653 6.52468ZM147.299 10.7575V25.7507H144.887V10.7575H147.299Z"
            fill="#0A0A0B" />
        <path
            d="M161.998 25.7507L161.675 23.339C160.421 25.0639 158.707 25.925 156.529 25.925C155.137 25.925 153.899 25.6206 152.812 25.0144C151.724 24.4083 150.871 23.5237 150.254 22.3686C149.638 21.2135 149.328 19.8398 149.328 18.2528C149.328 16.6658 149.638 15.4118 150.254 14.2541C150.871 13.0964 151.729 12.1962 152.827 11.5484C153.925 10.9006 155.158 10.578 156.532 10.578C157.747 10.578 158.785 10.7992 159.649 11.2388C160.51 11.6811 161.186 12.2821 161.678 13.047V5.17184H164.09V25.7507H161.998ZM161.085 21.1484C161.496 20.3159 161.701 19.3689 161.701 18.31C161.701 17.2512 161.496 16.2678 161.085 15.4144C160.674 14.5611 160.091 13.9003 159.336 13.4294C158.582 12.9585 157.723 12.7244 156.763 12.7244C155.273 12.7244 154.073 13.2395 153.163 14.2671C152.252 15.2974 151.797 16.6242 151.797 18.2502C151.797 19.8762 152.252 21.2057 153.163 22.2333C154.073 23.2635 155.275 23.7761 156.763 23.7761C157.723 23.7761 158.582 23.5445 159.336 23.084C160.091 22.6235 160.674 21.9757 161.085 21.1432V21.1484Z"
            fill="#0A0A0B" />
        <path
            d="M169.524 11.5354C170.601 10.898 171.837 10.5806 173.229 10.5806C174.621 10.5806 175.815 10.8642 176.874 11.434C177.933 12.0037 178.765 12.8258 179.374 13.9029C179.983 14.98 180.306 16.2444 180.345 17.6961C180.345 17.912 180.324 18.2554 180.285 18.7263H168.642V18.9318C168.681 20.4018 169.132 21.5777 169.995 22.4596C170.859 23.3416 171.986 23.7813 173.377 23.7813C174.454 23.7813 175.373 23.5107 176.127 22.9722C176.882 22.4336 177.387 21.6844 177.641 20.7218H180.082C179.788 22.2515 179.052 23.5003 177.876 24.4707C176.7 25.4411 175.258 25.925 173.554 25.925C172.064 25.925 170.76 25.6076 169.644 24.9702C168.528 24.3328 167.659 23.4327 167.042 22.2645C166.426 21.099 166.116 19.7618 166.116 18.2528C166.116 16.7439 166.415 15.3806 167.014 14.2255C167.612 13.0704 168.45 12.1728 169.527 11.5354H169.524ZM176.419 13.7546C175.586 13.0496 174.533 12.6957 173.258 12.6957C172.121 12.6957 171.122 13.0678 170.258 13.8118C169.394 14.5559 168.905 15.5263 168.788 16.7231H177.844C177.727 15.4483 177.251 14.4596 176.419 13.7546Z"
            fill="#0A0A0B" />
        <path
            d="M15.5696 0.952195C7.23864 0.952195 0.483765 7.69821 0.483765 16.0208C0.483765 23.5889 6.07158 29.8537 13.3527 30.9229L27.3834 6.65496C24.6195 3.18179 20.355 0.952195 15.5696 0.952195Z"
            fill="#0A0A0B" />
        <path d="M31.2285 0L27.3834 6.65496L41.4116 30.9229H49.1068L31.2285 0Z" fill="#0A0A0B" />
    </g>
    <defs>
        <clipPath id="clip0_181_51688">
            <rect width="180.033" height="32" fill="white" transform="translate(0.483765)" />
        </clipPath>
    </defs>
</svg>
    