<svg width="111" height="30" viewBox="0 0 111 30" fill="none" xmlns="http://www.w3.org/2000/svg">
<g clip-path="url(#clip0_480_193)">
<path d="M40.6987 26.2428V3.57104H54.9964V6.51571H44.1394V13.4235H53.442V16.3572H44.1394V23.2981H55.13V26.2428H40.6987Z" fill="#020101"/>
<path d="M62.9683 3.57104V26.2428H59.6388V3.57104H62.9683Z" fill="#020101"/>
<path d="M67.761 26.2428V9.23901H71.0906V26.2428H67.761Z" fill="#020101"/>
<path d="M78.5112 9.23901L82.2862 15.859L86.0944 9.23901H89.7357L84.4018 17.7408L89.7803 26.2428H86.1389L82.2862 19.8886L78.4444 26.2428H74.7921L80.1148 17.7408L74.8589 9.23901H78.5112Z" fill="#020101"/>
<path d="M93.4679 26.2428V9.23901H96.7973V26.2428H93.4679Z" fill="#020101"/>
<path d="M101.59 26.2428V9.239H104.808V11.9401H104.986C105.298 11.025 105.848 10.3054 106.634 9.78144C107.429 9.25006 108.327 8.98438 109.329 8.98438C109.537 8.98438 109.782 8.99175 110.064 9.00651C110.354 9.02128 110.58 9.03972 110.743 9.06187V12.2279C110.61 12.191 110.372 12.1504 110.031 12.1062C109.689 12.0545 109.348 12.0287 109.006 12.0287C108.219 12.0287 107.518 12.1947 106.902 12.5268C106.293 12.8516 105.81 13.3054 105.454 13.8885C105.098 14.4641 104.92 15.1209 104.92 15.859V26.2428H101.59Z" fill="#020101"/>
<path d="M67.761 6.70772V3.57422H71.0906V6.70772H67.761Z" fill="#020101"/>
<path d="M93.4679 6.70772V3.57422H96.7973V6.70772H93.4679Z" fill="#020101"/>
<path d="M14.9253 0C6.67709 0 0 6.67709 0 14.9253C0 23.1735 6.67709 29.8505 14.9253 29.8505C23.1735 29.8505 29.8505 23.1735 29.8505 14.9253C29.8505 6.67709 23.1735 0 14.9253 0ZM14.9253 26.95C8.27838 26.95 2.90045 21.5721 2.90045 14.9253C2.90045 13.7772 3.4745 11.1184 7.58348 11.1184C11.6925 11.1184 15.3482 15.1065 20.273 15.6806C21.9347 15.8921 23.2641 15.8618 24.2611 15.7411C25.7114 15.5597 26.8897 16.9495 26.4667 18.3695C24.9862 23.3245 20.3938 26.95 14.9253 26.95Z" fill="url(#paint0_linear_480_193)"/>
</g>
<defs>
<linearGradient id="paint0_linear_480_193" x1="-5.68182" y1="15" x2="13.7879" y2="35" gradientUnits="userSpaceOnUse">
<stop stop-color="#FFE480"/>
<stop offset="0.458483" stop-color="#FF43C3"/>
<stop offset="0.979531" stop-color="#4156E0"/>
</linearGradient>
<clipPath id="clip0_480_193">
<rect width="110.758" height="30" fill="white"/>
</clipPath>
</defs>
</svg>
