<svg xmlns="http://www.w3.org/2000/svg" width="4283" height="1098" fill="#fff" xmlns:v="https://vecta.io/nano"><path d="M2838 0h216l-19.312 135.953-.493 3.466-24.612 172.726-.315 2.209-.315 2.208-.315 2.206-.629 4.405-4.715 33.052-5.403 37.864-2.785 19.522-2.567 17.978-.933 6.547-1.269 8.876-.37 2.611-.344 2.39-.293 2.056c-.343 2.01-.81 3.96-1.329 5.931 4.039-3.357 7.874-6.715 11.25-10.75 44.636-52.294 121.473-74.404 187.29-80.061 11.664-.895 23.261-1.396 34.96-1.376l2.229.003c60.965.167 117.521 17.815 165.271 56.185l3.066 2.441c13.556 11.011 26.439 23.579 36.934 37.559l1.25 1.624c58.07 75.523 71.857 177.793 60.063 270.126-12.418 90.828-51.42 176.574-113.312 244.25l-2.945 3.262c-4.793 5.283-9.545 10.444-15.031 15.023-2.4 2.034-4.667 4.187-6.961 6.34-7.287 6.641-15.149 12.507-23.062 18.375l-1.825 1.36c-15.541 11.531-32.077 21.599-49.175 30.64l-2.525 1.339c-72.033 37.886-168.583 55.954-247.861 31.543-50.443-16.425-102.85-48.738-128.613-96.883v-2h-3l-.147 2.895c-.555 10.167-1.599 20.214-2.884 30.312l-.594 4.753-1.241 9.844-1.584 12.616-1.225 9.762-.584 4.656-.818 6.466-.469 3.71C2886 1077 2886 1077 2885 1080h-198l4.744-37.847.461-3.286 1.496-10.606 1.095-7.788 2.359-16.753 3.489-24.774 5.842-41.498 8.393-59.622 1.113-7.913 2.982-21.201 4.517-32.107 19.255-137.084.289-2.06 7.096-50.646 3.941-28.128.283-2.019 1.415-10.1 2.549-18.191.567-4.044 3.394-24.225 17.417-124.262.306-2.182 7.625-54.378 10.351-73.815 1.737-12.384 17.344-123.701.508-3.62L2838 0zm155.387 608.664c-1.228 1.182-2.48 2.339-3.735 3.492-37.994 35.856-56.896 93.078-58.775 144.17-.364 16.097-.149 31.861 3.122 47.674l.504 2.438c7.611 35.18 29.558 67.122 59.746 86.813 20.798 12.251 44.481 14.981 68.188 15l2.328.002c38.171-.053 76.842-7.254 111.235-24.252l1.953-.936c42.07-20.259 71.846-61.698 87.359-104.761 4.939-14.451 8.053-29.279 10.688-44.303l.445-2.487c3.743-21.995 3.586-47.801-1.445-69.513l-.586-2.553c-8.069-33.796-27.55-63.156-57.299-81.617-12.605-7.453-25.884-12.275-40.115-15.58l-2.584-.602c-15.047-3.292-29.883-4.056-45.228-4.023l-2.853.002c-50.257.133-96.536 15.759-132.947 51.037zM2268 365.688l3.546.007c17.325.051 34.331.433 51.454 3.306l3.685.602c64.573 10.833 125.2 37.762 175.453 79.844l5.203 4.269c7.732 6.358 14.878 13.294 21.973 20.348l2.786 2.758a206.28 206.28 0 0 1 14.952 16.749 151.25 151.25 0 0 0 4.743 5.646C2596.62 550.184 2623.49 618.143 2632 685l.264 2.062c1.821 14.645 2.097 29.193 2.048 43.938l-.007 3.546c-.051 17.325-.433 34.331-3.306 51.454l-.602 3.685c-10.833 64.573-37.762 125.2-79.844 175.453l-4.269 5.203c-6.358 7.732-13.294 14.878-20.348 21.973l-2.758 2.786a206.28 206.28 0 0 1-16.749 14.952 151.25 151.25 0 0 0-5.646 4.743c-50.969 44.827-118.928 71.697-185.785 80.207l-2.062.264c-14.645 1.821-29.193 2.097-43.938 2.048l-3.546-.007c-17.325-.051-34.331-.433-51.454-3.306l-3.685-.602c-64.573-10.833-125.2-37.762-175.453-79.844l-5.203-4.269c-7.732-6.358-14.878-13.294-21.973-20.348l-2.786-2.758a206.28 206.28 0 0 1-14.952-16.749 151.25 151.25 0 0 0-4.743-5.646C1940.38 912.816 1913.51 844.857 1905 778l-.264-2.062c-1.821-14.645-2.097-29.193-2.048-43.938l.007-3.546c.051-17.325.433-34.331 3.306-51.454l.602-3.685c10.833-64.573 37.762-125.2 79.844-175.453l4.269-5.203c6.358-7.732 13.294-14.878 20.348-21.973l2.758-2.786a206.28 206.28 0 0 1 16.749-14.952 151.25 151.25 0 0 0 5.646-4.743C2087.184 403.38 2155.143 376.51 2222 368l2.062-.264c14.645-1.821 29.193-2.097 43.938-2.048zM2268 470l-.18 1.851c-6.266 62.246-30.072 121.393-73.191 167.333-2.49 2.668-4.906 5.388-7.316 8.129-3.847 4.274-7.917 7.994-12.312 11.688l-2.98 2.641c-15.118 13.357-31.531 24.353-49.02 34.359l-1.954 1.135c-35.885 20.741-77.931 31.23-119.046 33.865v1l2.174.196c40.593 3.758 78.696 13.575 114.826 32.804l2.154 1.127c11.607 6.099 22.353 13.015 32.846 20.873l1.907 1.427c7.443 5.616 14.479 11.565 21.277 17.944 2.668 2.49 5.388 4.906 8.129 7.316 3.501 3.152 6.701 6.38 9.73 9.984 1.52 1.808 3.062 3.58 4.633 5.344C2240.053 874.664 2261.542 931.973 2268 992l2-1c.483-2.044.483-2.044.676-4.539l.312-2.913.325-3.173c6.571-57.427 31.396-113.958 71.395-155.965 1.94-2.039 3.748-4.12 5.543-6.285 9.594-11.014 21.072-20.42 32.75-29.125l1.681-1.264c44.511-33.282 97.945-52.188 153.319-55.736v-1l-3.609-.262c-23.725-1.893-46.781-6.285-69.391-13.738l-2.492-.819c-36.588-12.269-69.69-32.104-98.165-58.056-2.151-1.95-4.332-3.855-6.531-5.75-6.474-5.655-12.276-11.808-17.812-18.375l-1.351-1.58c-36.705-43.098-61.461-98.503-66.017-155.167-.248-4.069-.248-4.069-2.632-7.253zm1710.938-102.187l2.425.002c48.762.099 96.598 8.683 140.637 30.186l1.967.946c16.133 7.846 31.607 18.167 45.033 30.054l2.348 2.02c12.467 10.927 23.851 22.61 33.652 35.98l1.472 1.976c7.81 10.518 14.54 21.375 20.528 33.024l1.257 2.436c24.555 48.138 34.012 103.564 33.93 157.251l-.002 2.268c-.087 40.473-6.38 80.179-12.479 120.087l-.476 3.127-.446 2.905-.387 2.527c-.41 2.476-.905 4.937-1.397 7.398h-497c4.562 33.458 11.635 63.832 34 90l1.945 2.434c21.162 25.545 55.916 36.592 87.688 40.031 46.305 4.331 90.805-7.027 128.367-34.465l2.051-1.478c8.221-5.931 15.997-12.11 23.359-19.081 2.131-2.008 4.293-3.926 6.527-5.816 3.76-3.261 7.287-6.741 10.813-10.25l1.683-1.669c3.077-3.088 5.911-6.237 8.567-9.706 4.33.492 6.999 3.293 10.125 6.063l3.523 3.047 1.741 1.51c2.08 1.783 4.211 3.495 6.36 5.193 6.837 5.42 13.541 11.003 20.27 16.556L4110 893l5.5 4.5 2.75 2.25 41.25 33.75 2.766 2.262 5.344 4.383L4191 959c-1.632 4.13-4.623 6.912-7.715 9.98l-1.728 1.734-3.639 3.628-5.451 5.464c-6.85 6.858-13.851 13.187-21.467 19.193l-3.066 2.609c-66.687 57.19-158.203 90.321-245.184 95.641l-2.024.125c-15.816.946-31.542.791-47.351-.125l-2.26-.13c-79.225-4.684-160.646-30.44-219.443-85.636-2.22-2.064-4.477-4.036-6.797-5.984-51.694-45.219-79.175-121.963-84.125-188.625-6.45-98.006 21.892-196.548 97.863-296.297 3.583-4.076 7.265-8.059 10.96-12.033l4.435-4.869c5.243-5.788 10.552-11.299 16.445-16.441 2.311-2.028 4.561-4.109 6.803-6.214 6.316-5.902 12.957-11.261 19.812-16.521l6.014-4.777c17.469-13.989 36.34-25.914 55.918-36.723l2.409-1.341c55.369-30.63 119.492-48.384 182.591-52.658l3.745-.261c10.402-.69 20.77-.941 31.193-.927zm-170.376 211.703c-18.518 20.271-34.646 47.073-38.562 74.484h282c1.065-6.388 1.222-12.415 1.24-18.873l.072-6.082c.239-29.437-11.886-55.655-32.312-76.42-22.562-22.191-53.219-29.926-84.107-29.804-49.314.76-94.391 20.934-128.331 56.695zM396.75 367.813l2.427.002c83.014.168 170.707 18.291 231.198 78.436l2.093 2.079c7.337 7.361 7.337 7.361 9.532 10.671-1.239 3.718-2.675 4.551-5.75 6.938a205.6 205.6 0 0 0-12.75 11.063c-4.738 4.439-9.621 8.591-14.687 12.656-3.211 2.676-6.263 5.487-9.312 8.344-4.739 4.438-9.621 8.591-14.687 12.656-3.211 2.676-6.263 5.487-9.312 8.344-4.739 4.438-9.621 8.591-14.687 12.656-3.211 2.676-6.263 5.487-9.312 8.344-4.739 4.438-9.621 8.591-14.687 12.656-3.211 2.676-6.263 5.487-9.312 8.344-4.73 4.43-9.599 8.581-14.664 12.629-3.938 3.292-7.655 6.809-11.334 10.387-2.988 2.842-5.541 4.764-9.502 5.984l-1.836-2.457c-23.154-30.731-52.252-48.234-90.552-53.667-30.478-3.749-63.999-.116-89.62 18.284C299.512 561.03 292.718 574.36 291 588c-.846 10.903.139 19.483 7.063 28.188 22.254 23.085 66.052 28.672 96.141 35.691 159.664 37.266 159.664 37.266 197.176 97.331 7.832 13.071 14.454 26.615 18.433 41.353l.591 2.177c3.377 13.432 3.972 26.87 3.909 40.635l-.006 2.515c-.245 66.666-23.572 123.682-70.53 170.516-4.987 4.893-10.255 9.314-15.777 13.594l-3.867 3.055c-68.287 53.523-156.982 70.949-241.945 74.57l-2.851.122c-15.499.568-30.978.331-46.461-.497l-2.455-.13c-80.469-4.381-161.228-23.486-220.17-81.557l-2.386-2.333-2.223-2.226-1.983-1.974C1.833 1006.796.932 1004.715 0 1002l8.96-9.015 3.037-3.058c5.208-5.251 10.439-10.398 16.063-15.208C31.884 971.33 35.42 967.642 39 964c8.422-8.566 8.422-8.566 12.969-12.469 4.763-4.093 9.128-8.558 13.531-13.031 5.019-5.1 10.06-10.052 15.49-14.713C84.833 920.37 88.396 916.665 92 913c4.846-4.929 9.73-9.69 14.973-14.195C110.82 895.38 114.39 891.671 118 888c4.878-4.961 9.793-9.756 15.071-14.29 3.926-3.481 7.522-7.305 11.167-11.076l1.785-1.818 1.591-1.642C149 858 149 858 151 858a137.47 137.47 0 0 1 4.5 6.313c4.042 5.834 8.333 11.058 13.199 16.234 2.009 2.142 3.912 4.331 5.801 6.578 12.421 14.171 28.273 25.404 45.5 32.875l1.887.834c36.127 15.677 79.18 15.203 117.175 7.791l3.063-.596c16.391-3.389 35.179-9.049 44.998-23.705 6.434-10.827 9.821-22.473 7.342-35.035-3.096-11.268-9.989-18.194-19.949-23.965l-5.203-2.824-2.367-1.292c-18.537-9.578-38.866-14.558-59.015-19.456l-8.395-2.071-48.765-11.471C218.945 801.095 188.429 792.295 159 778l-2.861-1.387C139.431 768.415 125.363 758.908 112 746l-2.805-2.613c-27.242-26.046-39.591-60.876-40.481-98.008C68.082 582.559 88.453 518.114 132 472l3.188-3.75c8.735-9.991 18.319-19.135 28.813-27.25l3.828-3.051c62.868-49.662 150.019-70.248 228.922-70.137zM888 180h215c-1.149 13.784-1.149 13.784-2.101 20.502l-.322 2.332-1.062 7.599-.764 5.503-2.07 14.844-2.169 15.57-3.642 26.12-4.671 33.513-4.02 28.858-.862 6.185-2.457 17.618-.744 5.333-1.017 7.283-.296 2.127c-.544 3.884-1.16 7.742-1.805 11.613h188c-1.125 13.5-1.125 13.5-1.949 19.332l-.273 1.951-.896 6.321-.646 4.592-1.748 12.358-1.832 12.973-3.077 21.755-3.553 25.136-3.788 26.819-1.089 7.711-1.714 12.108-.628 4.44-.859 6.062-.485 3.425c-.413 2.685-.931 5.354-1.464 8.018h-189l-1 12-1.315 9.77-.392 2.747-1.296 8.992-.932 6.5-2.005 13.951-3.178 22.158-4.464 31.16-.286 1.993-4.288 29.844-4.993 34.83-2.638 18.37c-14.724 71.87-14.724 71.87 2.908 139.334L1028 892l2.352 3.004c13.696 15.494 34.445 18.849 54.023 20.684L1091 916l3.98.16c30.244.779 62.244-1.226 89.02-16.16l6-3c-.626 9.816-1.773 19.527-3.101 29.268l-.641 4.77-1.736 12.829-1.454 10.737-3.434 25.317-3.529 26.096-3.04 22.459-1.811 13.392-1.706 12.568-.622 4.609-.858 6.292-.482 3.555c-.559 2.96-1.247 5.415-2.587 8.109-2.245 1.207-2.245 1.207-5.082 2.027l-3.22.952-3.51.958-3.637 1.03c-41.266 11.39-83.879 15.173-126.55 16.032l-2.453.066c-63.638 1.671-139.858-7.77-188.442-52.602C800.334 1015.234 786.146 975.246 785 932c-.351-27.82 3.725-55.081 7.702-82.537l2.33-16.285 4.485-31.256 5.143-35.869 8.135-56.754 9.622-67.362 1.549-10.897.593-4.17.291-2.045 3.521-24.787 2.429-17.062.859-6.044 1.143-8.018.328-2.336c.43-2.981.915-5.715 1.87-8.58H698c1.125-13.5 1.125-13.5 1.993-19.555l.287-2.023.944-6.563.68-4.764 1.841-12.822 1.926-13.441 3.644-25.403 4.926-34.362L722 385h138l1-15 1.101-8.883.322-2.346 1.062-7.592.764-5.519 2.07-14.843 2.169-15.575 3.642-26.104 4.207-30.189 4.051-29.09 1.722-12.368 2.029-14.528.744-5.337 1.017-7.266.296-2.147c.406-2.865.887-5.458 1.805-8.212zm974 195c-.674 10.001-2.003 19.887-3.393 29.806l-.734 5.301-1.99 14.292-2.085 14.991-3.5 25.144-4.044 29.062-4.31 30.988-1.24 8.917-1.95 13.999-.715 5.136-.978 7.008-.552 3.961c-.425 2.822-.918 5.602-1.511 8.393l-2.621-.699c-15.932-4.126-32.092-7.307-48.316-10.051l-2.054-.35c-8.828-1.441-17.596-2.06-26.536-2.103l-2.965-.021-9.445-.026-3.259-.002c-53.869.054-105.528 11.573-144.748 50.758-10.93 11.353-19.813 24.622-27.058 38.578l-3.005 5.624c-21.462 40.316-28.248 88.406-34.668 133.093l-1.046 7.236-11.042 79.111-2.934 21.355-5.231 38.049-.312 2.269-3.468 25.259-1.274 9.28-.318 2.315-5.245 38.157-3.212 23.395-2.444 17.783-1 7.298-1.364 9.914-.399 2.946-.371 2.664-.317 2.31C1490 1078 1490 1078 1489 1080h-215l3.597-29.848.449-3.218 1.477-10.51 1.075-7.674 2.328-16.59 3.456-24.628 5.806-41.381 8.301-59.169 2.953-21.061.744-5.309 5.285-37.684 29.766-212.515 4.935-35.263 6.51-46.52 1.462-10.449 11.181-80.162.375-2.703 3.305-23.898.842-6.099.983-7.141.429-3.095.363-2.638c.383-2.495.881-4.972 1.376-7.448h215c-.594 8.314-1.193 16.381-2.399 24.585l-.414 2.903-1.347 9.317-.937 6.532-2.461 17.054-2.514 17.457L1571 497c3.185-3.103 5.646-6.237 8.125-9.937 7.903-11.613 16.68-22.453 25.875-33.062l2.098-2.441c10.627-12.101 22.069-23.801 34.902-33.559l3.523-2.781c56.534-44.125 146.949-63.396 216.477-40.22z"/></svg>