<?xml version="1.0" encoding="UTF-8"?>
<svg version="1.1" xmlns="http://www.w3.org/2000/svg" width="4283" height="1098">
<path d="M0 0 C71.28 0 142.56 0 216 0 C201.6195139 101.27861065 201.6195139 101.27861065 196.6875 135.953125 C196.52479992 137.09701848 196.36209984 138.24091196 196.19446945 139.41946888 C188.00486633 196.99672825 179.80051668 254.57188599 171.58278179 312.14513683 C171.4787149 312.87423015 171.374648 313.60332347 171.26742757 314.35451052 C171.11144132 315.44735081 171.11144132 315.44735081 170.95230383 316.56226867 C170.84839346 317.29026635 170.74448309 318.01826402 170.63742393 318.76832222 C170.42784602 320.23662544 170.21826653 321.70492843 170.00868548 323.17323119 C168.43617187 334.19026784 166.8648267 345.20747072 165.2940979 356.22476196 C163.49466314 368.84617384 161.69372357 381.46736994 159.89077961 394.08828104 C158.96125075 400.59539863 158.03243557 407.10261662 157.10536194 413.61008453 C156.25155523 419.60305415 155.39580421 425.59574276 154.53848207 431.58821046 C154.22660755 433.77058038 153.91545229 435.95305322 153.60506403 438.13563502 C153.18414221 441.09469609 152.76065847 444.05337926 152.33650208 447.01197815 C152.21455286 447.8736789 152.09260365 448.73537965 151.966959 449.62319255 C151.8533462 450.41189243 151.73973341 451.2005923 151.6226778 452.01319218 C151.52583834 452.69166551 151.42899888 453.37013884 151.32922488 454.06917197 C150.98653386 456.07897581 150.51905665 458.02903638 150 460 C154.03875655 456.64311144 157.87398711 453.28454379 161.25 449.25 C205.88598075 396.95637921 282.72294644 374.84614172 348.54003906 369.1887207 C360.20420859 368.29388118 371.80115424 367.79294454 383.5 367.8125 C384.603508 367.81390488 384.603508 367.81390488 385.72930908 367.81533813 C446.69416043 367.98206136 503.2498321 385.63065464 551 424 C552.01191406 424.80566406 553.02382812 425.61132812 554.06640625 426.44140625 C567.62237853 437.45216686 580.50555519 450.02068262 591 464 C591.41233887 464.53592773 591.82467773 465.07185547 592.24951172 465.62402344 C650.31974225 541.1470555 664.10613828 643.41726476 652.3125 735.75 C639.89405529 826.57778815 600.89297037 912.32358814 539 980 C538.01807843 981.08710345 537.03631673 982.17435132 536.0546875 983.26171875 C531.26182718 988.54474081 526.50971459 993.70579435 521.0234375 998.28515625 C518.62389145 1000.31874837 516.35606449 1002.47263092 514.0625 1004.625 C506.77586384 1011.26572936 498.91311164 1017.13187076 491 1023 C490.39784668 1023.44875488 489.79569336 1023.89750977 489.17529297 1024.35986328 C473.63408137 1035.89043963 457.09794414 1045.95902586 440 1055 C438.74993164 1055.66298096 438.74993164 1055.66298096 437.47460938 1056.33935547 C365.44153286 1094.22531076 268.89164428 1112.29369355 189.61328125 1087.8828125 C139.16995604 1071.45771971 86.76341404 1039.14448043 61 991 C61 990.34 61 989.68 61 989 C60.01 989 59.02 989 58 989 C57.95137817 989.95537155 57.90275635 990.9107431 57.85266113 991.89506531 C57.29799817 1002.06225315 56.25413518 1012.10892607 54.96875 1022.20703125 C54.77045031 1023.79119152 54.57250005 1025.37539556 54.37487793 1026.9596405 C53.96443301 1030.24147593 53.55068099 1033.5228705 53.13427734 1036.80395508 C52.60083002 1041.00851515 52.07463329 1045.21394497 51.55068207 1049.41969776 C51.14471141 1052.67386165 50.73565291 1055.92763127 50.32557678 1059.18128014 C50.13021243 1060.7333336 49.93565567 1062.28548895 49.7419281 1063.83774757 C49.47227497 1065.99354866 49.19862597 1068.14880457 48.92382812 1070.30395508 C48.76918091 1071.52810623 48.61453369 1072.75225739 48.4552002 1074.01350403 C48 1077 48 1077 47 1080 C-18.34 1080 -83.68 1080 -151 1080 C-147.55418475 1051.28487291 -147.55418475 1051.28487291 -146.25576782 1042.15318298 C-146.10376925 1041.0688924 -145.95177067 1039.98460181 -145.79516608 1038.86745393 C-145.29892543 1035.33178871 -144.79914889 1031.79663369 -144.29931641 1028.26147461 C-143.93421547 1025.66547999 -143.56931853 1023.06945742 -143.20467091 1020.47339916 C-142.41985036 1014.88882542 -141.63321091 1009.30451042 -140.84530449 1003.72037125 C-139.68020703 995.46282755 -138.51813854 987.20485952 -137.35670906 978.94679922 C-135.41117042 965.11397889 -133.46345029 951.28146663 -131.51449585 937.4491272 C-128.71438949 917.57559797 -125.91769236 897.70158987 -123.12193762 877.82744806 C-122.75089158 875.18979905 -122.37983876 872.55215099 -122.00878394 869.91450322 C-121.01464691 862.8476569 -120.02051283 855.78081017 -119.02641684 848.71395808 C-117.52092121 838.01174073 -116.01515224 827.30956186 -114.50918084 816.60741144 C-108.07940805 770.91434241 -101.65843475 725.22005197 -95.25390625 679.5234375 C-95.15860997 678.84349786 -95.06331369 678.16355821 -94.96512964 677.46301433 C-92.59907599 660.58102292 -90.23385059 643.69891549 -87.86904877 626.81674868 C-86.55566209 617.44056848 -85.24213546 608.06440791 -83.92849731 598.68826294 C-83.8351551 598.02202798 -83.74181288 597.35579302 -83.64564211 596.66936912 C-83.17397043 593.30279212 -82.70229616 589.93621547 -82.23062003 586.56963909 C-81.38108025 580.50607018 -80.53155054 574.44249986 -79.68202318 568.37892922 C-79.49315101 567.03083937 -79.30427857 565.68274956 -79.11540585 564.33465979 C-77.9840515 556.25955023 -76.85273458 548.18443542 -75.72147005 540.10931327 C-69.91870049 498.68836477 -64.1127868 457.26785774 -58.3046875 415.84765625 C-58.15322858 414.76753198 -58.15322858 414.76753198 -57.99870989 413.66558701 C-55.45699535 395.53945603 -52.91514633 377.41334391 -50.37323767 359.28724015 C-46.92274789 334.68212608 -43.47241632 310.07698983 -40.02208474 285.47185358 C-39.44323849 281.34396447 -38.86438995 277.21607568 -38.28553958 273.08818715 C-32.50337151 231.85447513 -26.72199094 190.62065277 -20.94140625 149.38671875 C-20.77391522 148.19197756 -20.60642419 146.99723637 -20.43385768 145.7662909 C-13.62220669 97.17757845 -6.81119557 48.58877629 0 0 Z M155.38720703 608.6640625 C154.1595468 609.84634986 152.90761589 611.00332118 151.65234375 612.15625 C113.65879049 648.01223492 94.75663221 705.23433012 92.87768555 756.32592773 C92.51356059 772.42333096 92.72916873 788.18668978 96 804 C96.16628906 804.804375 96.33257813 805.60875 96.50390625 806.4375 C104.11492607 841.61732495 126.0623898 873.55919138 156.25 893.25 C177.04773014 905.50139448 200.73055031 908.23118724 224.4375 908.25 C225.58975571 908.25101212 225.58975571 908.25101212 226.76528931 908.25204468 C264.93617425 908.19920719 303.60762841 900.99765454 338 884 C338.64437012 883.69126953 339.28874023 883.38253906 339.95263672 883.06445312 C382.02306508 862.80554489 411.7987039 821.36666404 427.31176758 778.30297852 C432.25088734 763.85192623 435.36502923 749.02350852 438 734 C438.14695312 733.17935059 438.29390625 732.35870117 438.4453125 731.51318359 C442.18824777 709.51846158 442.03146666 683.71187244 437 662 C436.80664062 661.15759766 436.61328125 660.31519531 436.4140625 659.44726562 C428.34490301 625.65143407 408.86454532 596.29175099 379.11474609 577.83007812 C366.50980518 570.37672176 353.23109394 565.55494461 339 562.25 C338.14720459 562.05124268 337.29440918 561.85248535 336.41577148 561.64770508 C321.36884444 558.35552832 306.53267227 557.59152995 291.1875 557.625 C290.24590027 557.62554382 289.30430054 557.62608765 288.33416748 557.62664795 C238.07695763 557.75962323 191.79789673 573.38562011 155.38720703 608.6640625 Z " fill="#FFFFFF" transform="translate(2838,0)"/>
<path d="M0 0 C1.75512909 0.00323273 1.75512909 0.00323273 3.54571533 0.00653076 C20.87090754 0.05771782 37.8764149 0.43964046 55 3.3125 C56.2159082 3.51117676 57.43181641 3.70985352 58.68457031 3.91455078 C123.2578854 14.74709359 183.88414674 41.6768799 234.13720703 83.75830078 C235.86016236 85.19582812 237.59751511 86.61342301 239.33984375 88.02734375 C247.07198851 94.38557599 254.21787303 101.32120819 261.3125 108.375 C262.2317627 109.28499756 263.15102539 110.19499512 264.09814453 111.13256836 C269.41801698 116.4769497 274.33771544 121.99446729 279.05004883 127.88110352 C280.59325105 129.80532424 282.15885043 131.68109088 283.79296875 133.52734375 C328.61976765 184.49680351 355.49013305 252.45530127 364 319.3125 C364.08720306 319.99284302 364.17440613 320.67318604 364.26425171 321.37414551 C366.08477826 336.01924353 366.36141169 350.56758809 366.3125 365.3125 C366.31034485 366.48258606 366.3081897 367.65267212 366.30596924 368.85821533 C366.25478218 386.18340754 365.87285954 403.1889149 363 420.3125 C362.80132324 421.5284082 362.60264648 422.74431641 362.39794922 423.99707031 C351.56540641 488.5703854 324.6356201 549.19664674 282.55419922 599.44970703 C281.11667188 601.17266236 279.69907699 602.91001511 278.28515625 604.65234375 C271.92692401 612.38448851 264.99129181 619.53037303 257.9375 626.625 C257.02750244 627.5442627 256.11750488 628.46352539 255.17993164 629.41064453 C249.8355503 634.73051698 244.31803271 639.65021544 238.43139648 644.36254883 C236.50717576 645.90575105 234.63140912 647.47135043 232.78515625 649.10546875 C181.81569649 693.93226765 113.85719873 720.80263305 47 729.3125 C46.31965698 729.39970306 45.63931396 729.48690613 44.93835449 729.57675171 C30.29325647 731.39727826 15.74491191 731.67391169 1 731.625 C-0.17008606 731.62284485 -1.34017212 731.6206897 -2.54571533 731.61846924 C-19.87090754 731.56728218 -36.8764149 731.18535954 -54 728.3125 C-55.2159082 728.11382324 -56.43181641 727.91514648 -57.68457031 727.71044922 C-122.2578854 716.87790641 -182.88414674 689.9481201 -233.13720703 647.86669922 C-234.86016236 646.42917188 -236.59751511 645.01157699 -238.33984375 643.59765625 C-246.07198851 637.23942401 -253.21787303 630.30379181 -260.3125 623.25 C-261.69139404 621.88500366 -261.69139404 621.88500366 -263.09814453 620.49243164 C-268.41801698 615.1480503 -273.33771544 609.63053271 -278.05004883 603.74389648 C-279.59325105 601.81967576 -281.15885043 599.94390912 -282.79296875 598.09765625 C-327.61976765 547.12819649 -354.49013305 479.16969873 -363 412.3125 C-363.1308046 411.29198547 -363.1308046 411.29198547 -363.26425171 410.25085449 C-365.08477826 395.60575647 -365.36141169 381.05741191 -365.3125 366.3125 C-365.31034485 365.14241394 -365.3081897 363.97232788 -365.30596924 362.76678467 C-365.25478218 345.44159246 -364.87285954 328.4360851 -362 311.3125 C-361.80132324 310.0965918 -361.60264648 308.88068359 -361.39794922 307.62792969 C-350.56540641 243.0546146 -323.6356201 182.42835326 -281.55419922 132.17529297 C-280.11667188 130.45233764 -278.69907699 128.71498489 -277.28515625 126.97265625 C-270.92692401 119.24051149 -263.99129181 112.09462697 -256.9375 105 C-256.02750244 104.0807373 -255.11750488 103.16147461 -254.17993164 102.21435547 C-248.8355503 96.89448302 -243.31803271 91.97478456 -237.43139648 87.26245117 C-235.50717576 85.71924895 -233.63140912 84.15364957 -231.78515625 82.51953125 C-180.81569649 37.69273235 -112.85719873 10.82236695 -46 2.3125 C-44.97948547 2.1816954 -44.97948547 2.1816954 -43.93835449 2.04824829 C-29.29325647 0.22772174 -14.74491191 -0.04891169 0 0 Z M0 104.3125 C-0.08918701 105.22854004 -0.08918701 105.22854004 -0.18017578 106.16308594 C-6.44632065 168.4090996 -30.25259488 227.5556024 -73.37109375 273.49609375 C-75.8614979 276.16411959 -78.27759344 278.884403 -80.6875 281.625 C-84.53470763 285.89892256 -88.60415271 289.61851068 -93 293.3125 C-93.98355469 294.18390625 -94.96710937 295.0553125 -95.98046875 295.953125 C-111.09833455 309.31040096 -127.51106871 320.30650694 -145 330.3125 C-145.64469238 330.68713379 -146.28938477 331.06176758 -146.95361328 331.44775391 C-182.83863779 352.18846105 -224.88495267 362.67780894 -266 365.3125 C-266 365.6425 -266 365.9725 -266 366.3125 C-265.28271729 366.37719482 -264.56543457 366.44188965 -263.82641602 366.50854492 C-223.23388009 370.2662171 -185.13046979 380.08362151 -149 399.3125 C-148.28924316 399.68455566 -147.57848633 400.05661133 -146.84619141 400.43994141 C-135.23873137 406.53937864 -124.49306515 413.45493832 -114 421.3125 C-113.37077637 421.78333008 -112.74155273 422.25416016 -112.09326172 422.73925781 C-104.64981871 428.35479742 -97.61439767 434.30418659 -90.81640625 440.68359375 C-88.14838041 443.1739979 -85.428097 445.59009344 -82.6875 448 C-79.18622215 451.15170494 -75.98692491 454.37972399 -72.95703125 457.984375 C-71.43702666 459.79260402 -69.89484257 461.56465589 -68.32421875 463.328125 C-27.94737931 508.97644075 -6.45788897 566.28549718 0 626.3125 C0.66 625.9825 1.32 625.6525 2 625.3125 C2.48254373 623.26864722 2.48254373 623.26864722 2.67578125 620.7734375 C2.77866455 619.81211914 2.88154785 618.85080078 2.98754883 617.86035156 C3.09478271 616.81331055 3.2020166 615.76626953 3.3125 614.6875 C9.88351562 557.26085791 34.70886543 500.72959258 74.70703125 458.72265625 C76.64728749 456.6832387 78.45520177 454.60301222 80.25 452.4375 C89.84441573 441.42338552 101.32151548 432.01737324 113 423.3125 C113.55478027 422.89548828 114.10956055 422.47847656 114.68115234 422.04882812 C159.19190965 388.76636043 212.62640018 369.86089257 268 366.3125 C268 365.9825 268 365.6525 268 365.3125 C266.80890625 365.22613281 265.6178125 365.13976562 264.390625 365.05078125 C240.66575882 363.15802976 217.60938906 358.76578512 195 351.3125 C194.17773926 351.04211914 193.35547852 350.77173828 192.50830078 350.49316406 C155.92038733 338.22461274 122.81820962 318.38890623 94.34375 292.4375 C92.19307289 290.48755276 90.01175029 288.58223871 87.8125 286.6875 C81.33884566 281.03280193 75.53672469 274.87907588 70 268.3125 C69.33121826 267.53036133 69.33121826 267.53036133 68.64892578 266.73242188 C31.94345787 223.63449628 7.18810738 168.229682 2.63183594 111.56567383 C2.38340033 107.49658672 2.38340033 107.49658672 0 104.3125 Z " fill="#FFFFFF" transform="translate(2268,365.6875)"/>
<path d="M0 0 C0.80031647 0.00060425 1.60063293 0.0012085 2.42520142 0.00183105 C51.18738288 0.10092767 99.023253 8.68504923 143.0625 30.1875 C144.03606445 30.65591309 144.03606445 30.65591309 145.02929688 31.13378906 C161.16202813 38.98008595 176.63658956 49.30115433 190.0625 61.1875 C190.83722656 61.85394531 191.61195312 62.52039063 192.41015625 63.20703125 C204.87734081 74.1335556 216.26088335 85.81654911 226.0625 99.1875 C226.5481543 99.83944336 227.03380859 100.49138672 227.53417969 101.16308594 C235.34381042 111.68125912 242.07413297 122.53853514 248.0625 134.1875 C248.47741699 134.9913916 248.89233398 135.7952832 249.31982422 136.62353516 C273.87489868 184.76129935 283.33175131 240.18785468 283.25 293.875 C283.24909363 294.9977684 283.24909363 294.9977684 283.24816895 296.14321899 C283.16074443 336.6159742 276.8685518 376.32192258 270.76953125 416.23046875 C270.61238144 417.26241364 270.45523163 418.29435852 270.2933197 419.35757446 C270.14600906 420.31618378 269.99869843 421.27479309 269.84692383 422.26245117 C269.71909012 423.09636887 269.59125641 423.93028656 269.45954895 424.78947449 C269.04960852 427.26535967 268.55467174 429.7266413 268.0625 432.1875 C104.0525 432.1875 -59.9575 432.1875 -228.9375 432.1875 C-224.37500141 465.64582303 -217.30282727 496.01931406 -194.9375 522.1875 C-194.29554688 522.99058594 -193.65359375 523.79367187 -192.9921875 524.62109375 C-171.82989663 550.16636955 -137.07657995 561.21297737 -105.3046875 564.65234375 C-58.99960877 568.98318856 -14.49959545 557.62561882 23.0625 530.1875 C23.73941895 529.69991211 24.41633789 529.21232422 25.11376953 528.70996094 C33.33443578 522.77871643 41.11083583 516.60033668 48.47265625 509.62890625 C50.60322404 507.62045245 52.76600995 505.70279927 55 503.8125 C58.75959193 500.55154868 62.28687736 497.07197923 65.8125 493.5625 C66.36800537 493.01158691 66.92351074 492.46067383 67.49584961 491.89306641 C70.57252771 488.80475009 73.40659886 485.65564275 76.0625 482.1875 C80.39210425 482.67902512 83.06134514 485.48084431 86.1875 488.25 C87.36107293 489.26667204 88.53555864 490.28229134 89.7109375 491.296875 C90.28553711 491.79509766 90.86013672 492.29332031 91.45214844 492.80664062 C93.53202376 494.59011164 95.66311432 496.30117283 97.8125 498 C104.64927616 503.42034782 111.35303101 509.00326054 118.08251953 514.55566406 C122.39845179 518.112716 126.73121385 521.64917239 131.0625 525.1875 C132.89595036 526.68735696 134.72928171 528.1873594 136.5625 529.6875 C137.47 530.43 138.3775 531.1725 139.3125 531.9375 C153.0625 543.1875 166.8125 554.4375 180.5625 565.6875 C181.47515625 566.43386719 182.3878125 567.18023438 183.328125 567.94921875 C185.11077624 569.40844612 186.89209275 570.86930602 188.671875 572.33203125 C196.41288602 578.6874471 204.2324276 584.9424625 212.0625 591.1875 C210.43002341 595.31736198 207.43951384 598.09904656 204.34765625 601.16796875 C203.77728134 601.74025711 203.20690643 602.31254547 202.61924744 602.9021759 C201.40869881 604.11408434 200.19562552 605.32347546 198.98022461 606.53051758 C197.15576306 608.34441507 195.34203549 610.16853694 193.52929688 611.99414062 C186.67930626 618.85192911 179.67862306 625.18081571 172.0625 631.1875 C171.03454167 632.0504021 170.01112879 632.91880768 168.99609375 633.796875 C102.30932278 690.98678188 10.79304387 724.11758906 -76.1875 729.4375 C-76.85534515 729.47879028 -77.52319031 729.52008057 -78.21127319 729.56262207 C-94.02731074 730.50884936 -109.75374187 730.35398862 -125.5625 729.4375 C-126.30840393 729.39459839 -127.05430786 729.35169678 -127.82281494 729.30749512 C-207.04759271 724.6237003 -288.46847052 698.86738131 -347.265625 643.671875 C-349.48546168 641.60781633 -351.74261216 639.63620579 -354.0625 637.6875 C-405.7562316 592.46875326 -433.23751092 515.72449383 -438.1875 449.0625 C-444.63784537 351.05626179 -416.29511194 252.51469203 -340.32421875 152.76513672 C-336.74141696 148.68906891 -333.05965088 144.70571122 -329.36425781 140.73193359 C-327.87447033 139.11927178 -326.4008645 137.49292909 -324.9296875 135.86328125 C-319.68638942 130.07543197 -314.3774553 124.56424444 -308.484375 119.421875 C-306.17291936 117.39403355 -303.92295412 115.31242555 -301.68115234 113.20825195 C-295.36475322 107.30585676 -288.72438102 101.94763543 -281.86962891 96.68701172 C-279.84641416 95.11680892 -277.84974181 93.51692765 -275.85546875 91.91015625 C-258.38646276 77.92143578 -239.51502184 65.99655488 -219.9375 55.1875 C-219.14263184 54.74486816 -218.34776367 54.30223633 -217.52880859 53.84619141 C-162.1595275 23.21520459 -98.03651975 5.46193189 -34.9375 1.1875 C-33.70169189 1.10137451 -32.46588379 1.01524902 -31.19262695 0.92651367 C-20.79105259 0.23633967 -10.42311619 -0.01474873 0 0 Z M-170.37597656 211.703125 C-188.89392832 231.97433135 -205.021546 258.775822 -208.9375 286.1875 C-115.8775 286.1875 -22.8175 286.1875 73.0625 286.1875 C74.12715284 279.79958294 74.2843553 273.77215614 74.30273438 267.31420898 C74.31232727 265.28651069 74.34334804 263.25987816 74.375 261.23242188 C74.61404814 231.79522342 62.48897469 205.577733 42.0625 184.8125 C19.50063679 162.62149719 -11.1561187 154.88689537 -42.04467773 155.00854492 C-91.3590644 155.76888702 -136.43525293 175.94209101 -170.37597656 211.703125 Z " fill="#FFFFFF" transform="translate(3978.9375,367.8125)"/>
<path d="M0 0 C1.20138107 0.00090637 1.20138107 0.00090637 2.42703247 0.00183105 C85.4407512 0.17019297 173.13422356 18.29331715 233.625 78.4375 C234.3156958 79.12344238 235.0063916 79.80938477 235.71801758 80.51611328 C243.05494158 87.87730494 243.05494158 87.87730494 245.25 91.1875 C244.01071219 94.90536343 242.57529278 95.73853725 239.5 98.125 C235.0728608 101.65180131 230.87413238 105.31236487 226.75 109.1875 C222.01213364 113.62663846 217.12873153 117.77898284 212.0625 121.84375 C208.85150195 124.51958171 205.79970863 127.33108276 202.75 130.1875 C198.01133536 134.62582674 193.12880674 138.7789225 188.0625 142.84375 C184.85150195 145.51958171 181.79970863 148.33108276 178.75 151.1875 C174.01133536 155.62582674 169.12880674 159.7789225 164.0625 163.84375 C160.85150195 166.51958171 157.79970863 169.33108276 154.75 172.1875 C150.01133536 176.62582674 145.12880674 180.7789225 140.0625 184.84375 C136.85150195 187.51958171 133.79970863 190.33108276 130.75 193.1875 C126.01985503 197.61784705 121.15134287 201.76853833 116.0859375 205.81640625 C112.14843586 209.10850473 108.43119984 212.62571063 104.75195312 216.203125 C101.76353167 219.04531254 99.21074532 220.96712275 95.25 222.1875 C94.64414062 221.37667969 94.03828125 220.56585937 93.4140625 219.73046875 C70.26052389 188.99923852 41.16238535 171.49676677 2.86181641 166.06323242 C-27.61571475 162.3140339 -61.13676248 165.94708397 -86.7578125 184.34765625 C-97.23848473 193.21712066 -104.03186015 206.5471458 -105.75 220.1875 C-106.59561215 231.0907718 -105.61119057 239.67045632 -98.6875 248.375 C-76.43327448 271.46029619 -32.63504536 277.04724267 -2.54638672 284.06591797 C157.11732797 321.33175303 157.11732797 321.33175303 194.62988281 381.39697266 C202.46142413 394.46752547 209.08402067 408.01218618 213.0625 422.75 C213.25755127 423.46857178 213.45260254 424.18714355 213.65356445 424.92749023 C217.03050034 438.35926388 217.62553448 451.79749689 217.5625 465.5625 C217.55976578 466.80740204 217.55976578 466.80740204 217.55697632 468.07745361 C217.31166231 534.7437331 193.98519163 591.75971403 147.02734375 638.59326172 C142.04065703 643.48644806 136.77272838 647.90773862 131.25 652.1875 C129.96087892 653.20565501 128.67182081 654.22388973 127.3828125 655.2421875 C59.09601852 708.76469972 -29.59937263 726.19135611 -114.5625 729.8125 C-115.97378174 729.87280396 -115.97378174 729.87280396 -117.41357422 729.93432617 C-132.9129575 730.50273406 -148.39117604 730.2653716 -163.875 729.4375 C-165.09006729 729.37314758 -165.09006729 729.37314758 -166.3296814 729.30749512 C-246.79874527 724.92644188 -327.55810153 705.82123892 -386.5 647.75 C-387.28753662 646.98026855 -388.07507324 646.21053711 -388.88647461 645.41748047 C-389.62003174 644.68287598 -390.35358887 643.94827148 -391.109375 643.19140625 C-391.76389648 642.53986572 -392.41841797 641.8883252 -393.09277344 641.21704102 C-394.91671844 638.9833264 -395.81790753 636.90217513 -396.75 634.1875 C-393.76669981 631.17918504 -390.77990259 628.17439606 -387.79003906 625.17260742 C-386.77673848 624.15432708 -385.76434288 623.13514526 -384.75292969 622.11499023 C-379.54527046 616.86350418 -374.31390745 611.71684475 -368.68945312 606.90649414 C-364.8660086 603.51766321 -361.33048121 599.82908157 -357.75 596.1875 C-349.32808043 587.62186166 -349.32808043 587.62186166 -344.78125 583.71875 C-340.01833486 579.62547243 -335.65285874 575.16103063 -331.25 570.6875 C-326.23072491 565.58765869 -321.18954375 560.63566517 -315.75976562 555.97460938 C-311.9169081 552.55749116 -308.35391313 548.85291335 -304.75 545.1875 C-299.90359596 540.25839282 -295.02002381 535.49777789 -289.77734375 530.9921875 C-285.93001943 527.56740169 -282.35985315 523.85895474 -278.75 520.1875 C-273.87222604 515.22648758 -268.95688163 510.43162831 -263.67871094 505.89794922 C-259.75319035 502.41665843 -256.15626738 498.59288354 -252.51171875 494.82226562 C-251.92261719 494.22220703 -251.33351562 493.62214844 -250.7265625 493.00390625 C-250.20143066 492.46193604 -249.67629883 491.91996582 -249.13525391 491.36157227 C-247.75 490.1875 -247.75 490.1875 -245.75 490.1875 C-244.175283 492.26188681 -242.70431729 494.34341627 -241.25 496.5 C-237.20790908 502.33405249 -232.91675253 507.55813184 -228.05078125 512.734375 C-226.04192611 514.87624432 -224.13869907 517.06552312 -222.25 519.3125 C-209.82920995 533.48310111 -193.97683616 544.71669999 -176.75 552.1875 C-176.12722168 552.46287598 -175.50444336 552.73825195 -174.86279297 553.02197266 C-138.7361581 568.69921232 -95.68266353 568.22529574 -57.6875 560.8125 C-56.67679443 560.61567627 -55.66608887 560.41885254 -54.62475586 560.21606445 C-38.23346527 556.82740914 -19.44606099 551.16731625 -9.62695312 536.51123047 C-3.19337588 525.68377156 0.1945083 514.03778292 -2.28515625 501.4765625 C-5.38124055 490.20884586 -12.27424483 483.28210744 -22.234375 477.51171875 C-23.96343951 476.560594 -25.69793811 475.61928689 -27.4375 474.6875 C-28.21859131 474.26122314 -28.99968262 473.83494629 -29.80444336 473.39575195 C-48.34100521 463.81766026 -68.67058873 458.83791853 -88.81913757 453.93925476 C-91.61915541 453.25588108 -94.41648578 452.56182788 -97.21392822 451.86800003 C-113.42677987 447.8491672 -129.67681682 444.03947802 -145.97875977 440.3972168 C-177.80468451 433.28285925 -208.32128177 424.48203398 -237.75 410.1875 C-238.69423828 409.72988281 -239.63847656 409.27226563 -240.61132812 408.80078125 C-257.31885657 400.60203533 -271.38680718 391.0955432 -284.75 378.1875 C-285.67554688 377.32511719 -286.60109375 376.46273438 -287.5546875 375.57421875 C-314.79704752 349.52805301 -327.14519855 314.69856103 -328.03540039 277.56640625 C-328.66793047 214.74648161 -308.29743602 150.30175644 -264.75 104.1875 C-263.68277054 102.94153551 -262.62020443 101.69156044 -261.5625 100.4375 C-252.82795632 90.44647903 -243.24382104 81.30254036 -232.75 73.1875 C-231.47351588 72.17112835 -230.19750814 71.15415824 -228.921875 70.13671875 C-166.0540948 20.47434642 -78.90291863 -0.11149 0 0 Z " fill="#FFFFFF" transform="translate(396.75,367.8125)"/>
<path d="M0 0 C70.95 0 141.9 0 215 0 C213.85130921 13.78428944 213.85130921 13.78428944 212.89941406 20.50192261 C212.79309284 21.2715666 212.68677162 22.0412106 212.57722855 22.83417714 C212.22645692 25.36759423 211.87106564 27.90033959 211.515625 30.43310547 C211.26066644 32.2674427 211.00599508 34.10181987 210.75158691 35.93623352 C210.06448298 40.88453134 209.37333425 45.83225639 208.68138123 50.77987814 C207.95621793 55.96972719 207.23467567 61.1600797 206.51269531 66.35037231 C205.30100402 75.05745359 204.08689399 83.76419469 202.87109375 92.47070312 C201.31121385 103.6412746 199.75510173 114.81236745 198.20025635 125.98364067 C196.86139982 135.60304198 195.52108967 145.22224065 194.18040466 154.84138727 C193.89309348 156.90294295 193.60583165 158.96450551 193.31861877 161.02607489 C192.50044416 166.89878401 191.68150033 172.77138471 190.86125183 178.64380455 C190.61306138 180.42151926 190.36513986 182.19927154 190.11750793 183.97706413 C189.7792862 186.40480825 189.44006698 188.83241095 189.10058594 191.25997925 C188.9542314 192.31289652 188.9542314 192.31289652 188.8049202 193.38708484 C188.26046075 197.27138955 187.64510904 201.12934573 187 205 C249.04 205 311.08 205 375 205 C373.87498196 218.50021645 373.87498196 218.50021645 373.05126953 224.33177185 C372.91628901 225.29741101 372.91628901 225.29741101 372.77858162 226.28255802 C372.48318569 228.38992613 372.18303726 230.49658638 371.8828125 232.60327148 C371.66725476 234.13381483 371.45199228 235.66439978 371.23699951 237.19502258 C370.65745309 241.31479139 370.07371656 245.43395621 369.4890976 249.55300784 C368.87603101 253.87714423 368.26662429 258.20179653 367.65673828 262.52638245 C366.63348209 269.77824977 365.60764355 277.02974795 364.58007812 284.28100586 C363.39281895 292.65929785 362.20893506 301.03806114 361.02700233 309.41710609 C359.76593457 318.3570347 358.50266237 327.29665071 357.23860931 336.23615766 C356.87528345 338.80658844 356.51234193 341.37707327 356.1494751 343.94756889 C355.57958206 347.98369496 355.00819249 352.01960648 354.43564606 356.05535698 C354.22593508 357.53513666 354.01670933 359.0149852 353.80800629 360.49490738 C353.52291896 362.51583199 353.23587318 364.53648005 352.94873047 366.55711365 C352.78871552 367.6873165 352.62870056 368.81751936 352.46383667 369.98197079 C352.05113298 372.66729492 351.5328187 375.33590648 351 378 C288.63 378 226.26 378 162 378 C161.67 381.96 161.34 385.92 161 390 C160.59070004 393.26487795 160.16036313 396.5149349 159.68508911 399.76959229 C159.55567771 400.67606656 159.42626631 401.58254083 159.29293334 402.51648402 C158.86412044 405.51440333 158.4303489 408.51158288 157.99658203 411.50878906 C157.68571148 413.67531267 157.3751737 415.84188405 157.06494141 418.00849915 C156.39843134 422.65919372 155.72984382 427.30958315 155.0596962 431.95975494 C153.99565629 439.34513572 152.93793413 446.73141296 151.88131714 454.11785889 C150.39503277 464.50475503 148.90741456 474.8914588 147.41748047 485.27783203 C147.27595961 486.26439459 147.27595961 486.26439459 147.13157974 487.2708877 C145.70439327 497.21916491 144.27426874 507.16701783 142.84326172 517.11474609 C141.1733044 528.72394291 139.50903846 540.33394211 137.85064971 551.94479728 C136.97570662 558.06860706 136.09792105 564.19197738 135.21289444 570.31433868 C120.48866535 642.1840954 120.48866535 642.1840954 138.12109375 709.6484375 C138.74113281 710.42445313 139.36117188 711.20046875 140 712 C140.77601563 712.99128906 141.55203125 713.98257813 142.3515625 715.00390625 C156.04762745 730.49783223 176.79687936 733.85283658 196.375 735.6875 C198.58210367 735.81509394 200.79075357 735.91743473 203 736 C204.31355469 736.05285156 205.62710937 736.10570312 206.98046875 736.16015625 C237.22465637 736.93880516 269.22491259 734.93406275 296 720 C297.99499336 718.99004876 299.99330539 717.9864972 302 717 C301.37401421 726.8162985 300.22656696 736.52658211 298.89868164 746.26757812 C298.68473389 747.85738163 298.47109439 749.44722664 298.25773621 751.03710938 C297.68275135 755.31388804 297.10302834 759.59001103 296.52202916 763.86597633 C296.03611525 767.44483925 295.55236057 771.02399282 295.06852716 774.60313749 C293.92755697 783.04254747 292.78250278 791.48139654 291.63500977 799.91992188 C290.45236238 808.61760897 289.27732267 817.31630082 288.10585123 826.01549959 C287.09729584 833.50261069 286.08374007 840.98903354 285.06623167 848.47493315 C284.45959336 852.9385483 283.85492419 857.40240807 283.25520515 861.86695862 C282.69214191 866.05718325 282.12285202 870.24651516 281.54875374 874.4352417 C281.33930484 875.97122459 281.13206717 877.50751089 280.92721176 879.04411316 C280.64713299 881.14229819 280.35906736 883.23923763 280.06898499 885.33605957 C279.90989182 886.50920967 279.75079866 887.68235977 279.5868845 888.89105988 C279.02817269 891.85075905 278.33979461 894.30558304 277 897 C274.75463867 898.20678711 274.75463867 898.20678711 271.91796875 899.02734375 C270.32408325 899.49877808 270.32408325 899.49877808 268.69799805 899.97973633 C267.53953369 900.29579834 266.38106934 900.61186035 265.1875 900.9375 C263.98714111 901.27740967 262.78678223 901.61731934 261.55004883 901.9675293 C220.28442598 913.35787839 177.67138822 917.14070035 135 918 C134.19062988 918.02191406 133.38125977 918.04382812 132.54736328 918.06640625 C68.90908017 919.73779911 -7.31014504 910.29643943 -55.89453125 865.46484375 C-87.66559138 835.23385297 -101.85381723 795.24635699 -103 752 C-103.35127671 724.18016623 -99.27517745 696.9186485 -95.29782391 669.4633863 C-94.51382878 664.03609462 -93.74135569 658.60716146 -92.96746826 653.17842102 C-91.4803608 642.75867608 -89.98325285 632.34039382 -88.48250115 621.92260629 C-86.76073493 609.96744074 -85.04961197 598.01075958 -83.33938563 586.05393863 C-80.63322051 567.13512034 -77.92124797 548.21714287 -75.2040447 529.29990697 C-71.9792918 506.84838144 -68.77161546 484.39449659 -65.58249354 461.93788362 C-65.06655015 458.30548283 -64.55013299 454.67314942 -64.03370667 451.04081726 C-63.83610211 449.65086911 -63.63849792 448.2609209 -63.44089413 446.87097263 C-63.34496373 446.19620762 -63.24903333 445.52144261 -63.15019596 444.82623017 C-61.97557834 436.56407246 -60.8011672 428.30188632 -59.62887573 420.03939819 C-58.82169801 414.35181264 -58.011811 408.66461971 -57.19965363 402.97774315 C-56.9124175 400.9631884 -56.62615434 398.94849463 -56.34096527 396.93364906 C-55.96253632 394.26073186 -55.58073828 391.58831833 -55.19799805 388.91601562 C-55.03553793 387.75956936 -55.03553793 387.75956936 -54.8697958 386.57976055 C-54.43973115 383.59890774 -53.9549275 380.86478251 -53 378 C-98.21 378 -143.42 378 -190 378 C-188.875 364.5 -188.875 364.5 -188.00657654 358.44476318 C-187.91180041 357.77705816 -187.81702428 357.10935313 -187.71937615 356.42141461 C-187.4079379 354.23325577 -187.09157615 352.04584055 -186.77514648 349.85839844 C-186.54809974 348.27048472 -186.32136299 346.68252665 -186.09490967 345.0945282 C-185.48448454 340.82012841 -184.86977077 336.54635555 -184.25423694 332.27268887 C-183.60975782 327.79277056 -182.9692915 323.3122786 -182.3283844 318.83184814 C-181.11646281 310.36388505 -179.90097601 301.89643778 -178.68418127 293.42917371 C-177.03848091 281.97581957 -175.39834223 270.5216691 -173.7578783 259.06756401 C-171.17644013 241.0443919 -168.58761863 223.02228831 -166 205 C-120.46 205 -74.92 205 -28 205 C-27.67 200.05 -27.34 195.1 -27 190 C-26.67068633 187.0230181 -26.3231201 184.07820714 -25.89941406 181.11712646 C-25.79309284 180.3428025 -25.68677162 179.56847853 -25.57722855 178.7706902 C-25.22836327 176.23930836 -24.87206047 173.70903695 -24.515625 171.17871094 C-24.260498 169.33908689 -24.00583202 167.49939885 -23.75158691 165.65965271 C-23.0663808 160.71146443 -22.37459484 155.76421734 -21.68138123 150.81714535 C-20.95498031 145.62608214 -20.23422383 140.43423493 -19.51269531 135.24249268 C-18.3024752 126.54054482 -17.08812585 117.83918121 -15.87109375 109.13818359 C-14.46368016 99.0758331 -13.06204892 89.01269046 -11.66363907 78.949085 C-10.3160766 69.25186763 -8.96525976 59.55510666 -7.6126709 49.85858917 C-7.03760787 45.73597068 -6.46354672 41.61321451 -5.89025879 37.49034882 C-5.21660512 32.64718586 -4.54006217 27.80443508 -3.86125183 22.96199226 C-3.61234404 21.18311509 -3.36441045 19.4041013 -3.11750793 17.62494469 C-2.78117643 15.20260768 -2.44134633 12.78078716 -2.10058594 10.35906982 C-2.00301624 9.65043281 -1.90544655 8.9417958 -1.8049202 8.21168494 C-1.3985266 5.34695455 -0.91786419 2.75359257 0 0 Z " fill="#FFFFFF" transform="translate(888,180)"/>
<path d="M0 0 C-0.67359251 10.00109967 -2.00279833 19.88657743 -3.39257812 29.80639648 C-3.63768143 31.57339211 -3.88250074 33.34042715 -4.12705994 35.10749817 C-4.78728867 39.87185211 -5.4515658 44.63563337 -6.11668968 49.39930606 C-6.81373763 54.39611453 -7.50728527 59.39340893 -8.20129395 64.39064026 C-9.36586179 72.77237443 -10.5329345 81.15375673 -11.70166016 89.53491211 C-13.05247277 99.22197372 -14.39995264 108.90949421 -15.74552011 118.59728569 C-17.18025725 128.92689894 -18.61727815 139.25619351 -20.05504417 149.58538556 C-20.46864474 152.55783725 -20.88183351 155.53034595 -21.29493713 158.50286674 C-21.94358309 163.16935128 -22.59376909 167.83561875 -23.24514961 172.50172234 C-23.4839065 174.21370861 -23.72215791 175.92576548 -23.95986748 177.63789749 C-24.28431743 179.97412121 -24.61060948 182.31008044 -24.93737793 184.64598083 C-25.11951591 185.95316794 -25.3016539 187.26035505 -25.48931122 188.60715389 C-25.91408332 191.42919821 -26.40697497 194.20933703 -27 197 C-28.29744141 196.65388672 -28.29744141 196.65388672 -29.62109375 196.30078125 C-45.55334994 192.17502811 -61.71264503 188.99378071 -77.9375 186.25 C-78.61538574 186.13454834 -79.29327148 186.01909668 -79.99169922 185.90014648 C-88.8193729 184.45945092 -97.58738158 183.83993479 -106.52734375 183.796875 C-107.50591339 183.78986069 -108.48448303 183.78284637 -109.4927063 183.77561951 C-112.64101808 183.75818722 -115.7891417 183.75176546 -118.9375 183.75 C-120.01313202 183.74932526 -121.08876404 183.74865051 -122.19699097 183.74795532 C-176.06563787 183.80165884 -227.72482284 195.32105393 -266.94482422 234.50585938 C-277.87482688 245.85885475 -286.75749087 259.1281509 -294.00292969 273.08349609 C-294.98420731 274.96964431 -295.99415502 276.83813112 -297.0078125 278.70703125 C-318.47007537 319.02291315 -325.255644 367.11345921 -331.67602539 411.79956055 C-332.0246412 414.21139835 -332.37327219 416.62323397 -332.72191715 419.03506756 C-336.52078474 445.38887365 -340.14831228 471.76646771 -343.76410418 498.14588537 C-344.74002522 505.26460481 -345.71915782 512.38288168 -346.69854081 519.50112554 C-348.44354319 532.1840748 -350.18721168 544.86720695 -351.92944336 557.55053711 C-352.03231917 558.29946036 -352.13519498 559.04838361 -352.24118824 559.82000151 C-353.39770316 568.2395597 -354.55380381 576.65917468 -355.70941162 585.07885742 C-356.13399034 588.1722822 -356.55856995 591.26570685 -356.9831543 594.35913086 C-357.08801895 595.12315611 -357.1928836 595.88718135 -357.30092596 596.67435888 C-359.04675713 609.39362125 -360.79531872 622.11250654 -362.5460878 634.83109015 C-363.61941737 642.6292151 -364.69040958 650.42765398 -365.75834734 658.22651919 C-366.57028603 664.15445786 -367.38584571 670.08189231 -368.2027874 676.00914383 C-368.53742506 678.44152749 -368.87083134 680.87408091 -369.20294571 683.30681038 C-369.65434005 686.61200518 -370.11004392 689.91657711 -370.56687927 693.22102356 C-370.76443578 694.67931642 -370.76443578 694.67931642 -370.96598333 696.16706973 C-371.08844303 697.04629964 -371.21090273 697.92552954 -371.33707333 698.83140278 C-371.44171648 699.59368539 -371.54635963 700.355968 -371.65417379 701.14135009 C-372 703 -372 703 -373 705 C-443.95 705 -514.9 705 -588 705 C-585.70278632 684.32507687 -585.70278632 684.32507687 -584.40293884 675.15214539 C-584.25461766 674.09021929 -584.10629648 673.0282932 -583.95348072 671.93418753 C-583.46351141 668.43063495 -582.96992699 664.92760209 -582.47631836 661.42456055 C-582.1178417 658.86670824 -581.75959309 656.30882397 -581.40155125 653.75091076 C-580.62711024 648.22074865 -579.8508022 642.69085125 -579.07322693 637.161129 C-577.91891084 628.95210244 -576.76762646 620.74265265 -575.61697035 612.53311238 C-573.68351173 598.73905637 -571.74777895 584.94532045 -569.8107605 571.15176392 C-567.04115154 551.42908302 -564.27489901 531.70593225 -561.50944622 511.98266821 C-560.52510839 504.96240772 -559.54070517 497.9421564 -558.55630211 490.92190506 C-558.3081767 489.1524016 -558.06005277 487.38289793 -557.81193032 485.61339406 C-556.0505595 473.0520937 -554.28877209 460.49085183 -552.52666085 447.92965532 C-542.58960697 377.09333876 -532.67213616 306.25428723 -522.76051786 235.41440769 C-521.11589844 223.66012579 -519.47091566 211.90589478 -517.82565308 200.15170288 C-515.65517135 184.64519982 -513.48496647 169.13865805 -511.31516128 153.63206031 C-510.82777241 150.14892777 -510.34036367 146.66579803 -509.85290599 143.18267512 C-506.11364826 116.46383803 -502.3748889 89.74495275 -498.67236328 63.02099609 C-498.48692693 61.68300675 -498.48692693 61.68300675 -498.29774439 60.31798732 C-497.1937859 52.35236251 -496.09049921 44.38664907 -494.99302244 36.42012835 C-494.71277855 34.38708271 -494.43191691 32.35412355 -494.15079308 30.32119942 C-493.82177322 27.94113136 -493.49389335 25.56090526 -493.16747475 23.18047905 C-493.02604734 22.15905375 -492.88461994 21.13762844 -492.73890686 20.08525085 C-492.61908982 19.21485515 -492.49927279 18.34445944 -492.37582493 17.4476881 C-491.9926858 14.95236376 -491.49510835 12.47554173 -491 10 C-420.05 10 -349.1 10 -276 10 C-276.5938815 18.314341 -277.19250265 26.38062705 -278.39868164 34.58544922 C-278.53537766 35.54334351 -278.67207367 36.50123779 -278.81291199 37.48815918 C-279.25734068 40.59435742 -279.70866371 43.6995089 -280.16015625 46.8046875 C-280.47304123 48.98180052 -280.78548808 51.15897655 -281.09751892 53.33621216 C-281.91350135 59.02156918 -282.73536977 64.70605966 -283.55853271 70.39038086 C-284.40005091 76.20895381 -285.23590877 82.02833959 -286.07226562 87.84765625 C-287.70935398 99.23256627 -289.35267146 110.61656749 -291 122 C-287.81513131 118.89684779 -285.35421808 115.76303031 -282.875 112.0625 C-274.97166889 100.44944204 -266.1952435 89.60935245 -257 79 C-256.30777344 78.19433594 -255.61554688 77.38867188 -254.90234375 76.55859375 C-244.27583899 64.45789179 -232.83382907 52.75795268 -220 43 C-218.82501566 42.07355701 -217.65057379 41.14642576 -216.4765625 40.21875 C-159.94272058 -3.90469776 -69.52795492 -23.17598497 0 0 Z " fill="#FFFFFF" transform="translate(1862,375)"/>
</svg>
